<svg viewBox="0 0 305 409" version="1.1" xmlns="http://www.w3.org/2000/svg" xmlns:xlink="http://www.w3.org/1999/xlink">
  <g id="delete" fill-rule="nonzero" fill="#ED4D48">
    <path d="M35.7,388.8 C36.2,399.8 45.3,408.5 56.3,408.5 L248.3,408.5 C259.3,408.5 268.3,399.8 268.7,388.8 L282.4,99.5 L22,99.5 L35.7,388.8 Z M195.7,171.3 C195.7,166.7 199.4,163 204,163 L217.4,163 C222,163 225.7,166.7 225.7,171.3 L225.7,336.6 C225.7,341.2 222,345 217.4,345 L204,345 C199.4,345 195.7,341.2 195.7,336.6 L195.7,171.3 Z M137.2,171.3 C137.2,166.7 141,163 145.6,163 L159,163 C163.5,163 167.3,166.7 167.3,171.3 L167.3,336.6 C167.3,341.2 163.5,345 158.9,345 L145.4,345 C140.8,345 137,341.2 137,336.6 L137,171.3 L137.2,171.3 Z M78.8,171.3 C78.8,166.7 82.5,163 87.1,163 L100.7,163 C105.3,163 109,166.7 109,171.3 L109,336.6 C109,341.2 105.2,345 100.6,345 L87,345 C82.5,345 78.8,341.2 78.8,336.6 L78.8,171.3 L78.8,171.3 Z M291.6,21 L203,21 L203,4.3 C203,1.9 201,0 198.7,0 L105.7,0 C103.4,0 101.5,2 101.5,4.3 L101.5,21 L13,21 C5.8,21 0,26.8 0,34 L0,74.5 L304.5,74.5 L304.5,34 C304.5,26.8 298.7,21 291.5,21 L291.6,21 Z" id="Shape"></path>
  </g>
</svg>
